<svg width="129" height="30" viewBox="0 0 129 30" fill="none" xmlns="http://www.w3.org/2000/svg">
<g clip-path="url(#clip0_17_133)">
<path d="M0 6.81681V21.5908C0 22.0329 0.55206 22.2312 0.832337 21.8898L1.55568 21.0114C2.53098 19.8241 3.98757 19.137 5.52202 19.137H17.0473C20.8113 19.137 23.8617 16.0839 23.8617 12.3167V6.8154C23.8617 3.04964 20.8113 -0.0020752 17.0502 -0.0020752H6.81158C3.05049 -0.00065843 0 3.05247 0 6.81681ZM4.25794 6.81681C4.25794 5.40713 5.40594 4.25955 6.81441 4.25955H17.0502C18.4586 4.25955 19.6052 5.40713 19.6052 6.81681V12.3181C19.6052 13.7292 18.4586 14.8768 17.0502 14.8768H5.52202C5.09594 14.8768 4.67411 14.9051 4.25653 14.9618V6.81681H4.25794Z" fill="url(#paint0_linear_17_133)"/>
<path d="M12.1085 0H17.0502C20.8127 0 23.8618 3.05171 23.8618 6.81747V11.1074H19.6038V6.81747C19.6038 5.40779 18.4572 4.26021 17.0488 4.26021H12.1071V0H12.1085Z" fill="url(#paint1_linear_17_133)"/>
<path d="M4.25794 9.28833V14.9625C4.67553 14.9058 5.09736 14.8775 5.52343 14.8775H17.0502C18.4586 14.8775 19.6052 13.7299 19.6052 12.3188V9.28833H23.8632V12.3188C23.8632 16.086 20.8127 19.1391 17.0488 19.1391H5.52202C3.98757 19.1391 2.53098 19.8262 1.55568 21.0135L0.832337 21.8919C0.55206 22.2319 0 22.0336 0 21.5929V9.28833H4.25794Z" fill="url(#paint2_linear_17_133)"/>
<path d="M12.1382 16.9941V20.2569C12.1382 24.0213 15.1873 27.0744 18.9498 27.0744H30.4766C32.011 27.0744 33.4676 27.7615 34.4429 28.9488L35.1662 29.8272C35.4465 30.1672 35.9986 29.9688 35.9986 29.5282V14.7556C35.9986 10.9884 32.9481 7.9353 29.1842 7.9353H21.7172C20.5494 7.9353 19.6024 8.8817 19.6024 10.0519V12.3174C19.6024 13.7285 18.4558 14.876 17.0473 14.876H14.2502C13.0824 14.876 12.1354 15.8239 12.1354 16.9927L12.1382 16.9941ZM18.9498 22.8142C17.8174 22.8142 16.8548 22.0732 16.5236 21.0489C16.4401 20.7981 16.3962 20.5318 16.3962 20.2555V19.1391H17.0502C20.8127 19.1391 23.8617 16.0845 23.8617 12.3188V12.1983H29.187C30.5969 12.1983 31.742 13.3417 31.742 14.7556V22.9006C31.3245 22.8439 30.9026 22.8156 30.4766 22.8156H18.9498V22.8142Z" fill="url(#paint3_linear_17_133)"/>
<path d="M4.25793 4.46848V6.81747C4.25793 5.40779 5.40594 4.26021 6.8144 4.26021H14.1724V0H8.72255C6.25668 0 4.25793 2.00047 4.25793 4.46848Z" fill="url(#paint4_linear_17_133)"/>
<path style="mix-blend-mode:multiply" opacity="0.93" d="M31.742 12.4052V14.7542C31.742 13.3445 30.594 12.1969 29.1856 12.1969H21.8276V7.9353H27.2774C29.7433 7.9353 31.742 9.93578 31.742 12.4038V12.4052Z" fill="url(#paint5_linear_17_133)"/>
<path style="mix-blend-mode:multiply" opacity="0.93" d="M16.3948 14.8775V19.1391H17.0488C20.8113 19.1391 23.8603 16.0846 23.8603 12.3188V12.1984H19.6024V12.3188C19.6024 13.7299 18.4558 14.8775 17.0474 14.8775H16.3934H16.3948Z" fill="url(#paint6_linear_17_133)"/>
<path style="mix-blend-mode:multiply" opacity="0.93" d="M16.3948 14.8775V19.1391H17.0488C20.8113 19.1391 23.8603 16.0846 23.8603 12.3188V12.1984H19.6024V12.3188C19.6024 13.7299 18.4558 14.8775 17.0474 14.8775H16.3934H16.3948Z" fill="url(#paint7_linear_17_133)"/>
<path style="mix-blend-mode:multiply" opacity="0.93" d="M21.3081 27.0757H28.8515V22.8141H18.9512C17.8188 22.8141 16.8562 22.0731 16.525 21.0488H16.3976C16.3976 21.0488 15.7479 27.0743 21.3095 27.0743L21.3081 27.0757Z" fill="url(#paint8_linear_17_133)"/>
<path d="M15.8909 10.9601C16.6351 10.9601 17.2385 10.3562 17.2385 9.61133C17.2385 8.86643 16.6351 8.26257 15.8909 8.26257C15.1466 8.26257 14.5433 8.86643 14.5433 9.61133C14.5433 10.3562 15.1466 10.9601 15.8909 10.9601Z" fill="url(#paint9_linear_17_133)"/>
<path d="M11.9316 10.9601C12.6759 10.9601 13.2792 10.3562 13.2792 9.61133C13.2792 8.86643 12.6759 8.26257 11.9316 8.26257C11.1874 8.26257 10.584 8.86643 10.584 9.61133C10.584 10.3562 11.1874 10.9601 11.9316 10.9601Z" fill="url(#paint10_linear_17_133)"/>
<path d="M7.97092 10.9601C8.71517 10.9601 9.31851 10.3562 9.31851 9.61133C9.31851 8.86643 8.71517 8.26257 7.97092 8.26257C7.22666 8.26257 6.62332 8.86643 6.62332 9.61133C6.62332 10.3562 7.22666 10.9601 7.97092 10.9601Z" fill="url(#paint11_linear_17_133)"/>
</g>
<path d="M52.9359 22L49.6159 16.3H47.4159V22H45.5959V8.06H50.0959C51.1492 8.06 52.0359 8.24 52.7559 8.6C53.4892 8.96 54.0359 9.44667 54.3959 10.06C54.7559 10.6733 54.9359 11.3733 54.9359 12.16C54.9359 13.12 54.6559 13.9667 54.0959 14.7C53.5492 15.4333 52.7226 15.92 51.6159 16.16L55.1159 22H52.9359ZM47.4159 14.84H50.0959C51.0826 14.84 51.8226 14.6 52.3159 14.12C52.8092 13.6267 53.0559 12.9733 53.0559 12.16C53.0559 11.3333 52.8092 10.6933 52.3159 10.24C51.8359 9.78667 51.0959 9.56 50.0959 9.56H47.4159V14.84ZM59.5839 8.06V22H57.7639V8.06H59.5839ZM67.1058 22.14C66.1858 22.14 65.3591 21.98 64.6258 21.66C63.9058 21.3267 63.3391 20.8733 62.9258 20.3C62.5124 19.7133 62.2991 19.04 62.2858 18.28H64.2258C64.2924 18.9333 64.5591 19.4867 65.0258 19.94C65.5058 20.38 66.1991 20.6 67.1058 20.6C67.9724 20.6 68.6524 20.3867 69.1458 19.96C69.6524 19.52 69.9058 18.96 69.9058 18.28C69.9058 17.7467 69.7591 17.3133 69.4658 16.98C69.1724 16.6467 68.8058 16.3933 68.3658 16.22C67.9258 16.0467 67.3324 15.86 66.5858 15.66C65.6658 15.42 64.9258 15.18 64.3658 14.94C63.8191 14.7 63.3458 14.3267 62.9458 13.82C62.5591 13.3 62.3658 12.6067 62.3658 11.74C62.3658 10.98 62.5591 10.3067 62.9458 9.72C63.3324 9.13333 63.8724 8.68 64.5658 8.36C65.2724 8.04 66.0791 7.88 66.9858 7.88C68.2924 7.88 69.3591 8.20667 70.1858 8.86C71.0258 9.51333 71.4991 10.38 71.6058 11.46H69.6058C69.5391 10.9267 69.2591 10.46 68.7658 10.06C68.2724 9.64667 67.6191 9.44 66.8058 9.44C66.0458 9.44 65.4258 9.64 64.9458 10.04C64.4658 10.4267 64.2258 10.9733 64.2258 11.68C64.2258 12.1867 64.3658 12.6 64.6458 12.92C64.9391 13.24 65.2924 13.4867 65.7058 13.66C66.1324 13.82 66.7258 14.0067 67.4858 14.22C68.4058 14.4733 69.1458 14.7267 69.7058 14.98C70.2658 15.22 70.7458 15.6 71.1458 16.12C71.5458 16.6267 71.7458 17.32 71.7458 18.2C71.7458 18.88 71.5658 19.52 71.2058 20.12C70.8458 20.72 70.3124 21.2067 69.6058 21.58C68.8991 21.9533 68.0658 22.14 67.1058 22.14ZM79.0761 15.02C79.0761 13.66 79.3827 12.44 79.9961 11.36C80.6094 10.2667 81.4427 9.41333 82.4961 8.8C83.5627 8.18667 84.7427 7.88 86.0361 7.88C87.5561 7.88 88.8827 8.24667 90.0161 8.98C91.1494 9.71333 91.9761 10.7533 92.4961 12.1H90.3161C89.9294 11.26 89.3694 10.6133 88.6361 10.16C87.9161 9.70667 87.0494 9.48 86.0361 9.48C85.0627 9.48 84.1894 9.70667 83.4161 10.16C82.6427 10.6133 82.0361 11.26 81.5961 12.1C81.1561 12.9267 80.9361 13.9 80.9361 15.02C80.9361 16.1267 81.1561 17.1 81.5961 17.94C82.0361 18.7667 82.6427 19.4067 83.4161 19.86C84.1894 20.3133 85.0627 20.54 86.0361 20.54C87.0494 20.54 87.9161 20.32 88.6361 19.88C89.3694 19.4267 89.9294 18.78 90.3161 17.94H92.4961C91.9761 19.2733 91.1494 20.3067 90.0161 21.04C88.8827 21.76 87.5561 22.12 86.0361 22.12C84.7427 22.12 83.5627 21.82 82.4961 21.22C81.4427 20.6067 80.6094 19.76 79.9961 18.68C79.3827 17.6 79.0761 16.38 79.0761 15.02ZM100.645 10.84C101.472 10.84 102.219 11.02 102.885 11.38C103.552 11.7267 104.072 12.2533 104.445 12.96C104.832 13.6667 105.025 14.5267 105.025 15.54V22H103.225V15.8C103.225 14.7067 102.952 13.8733 102.405 13.3C101.859 12.7133 101.112 12.42 100.165 12.42C99.2053 12.42 98.4386 12.72 97.8653 13.32C97.3053 13.92 97.0253 14.7933 97.0253 15.94V22H95.2053V7.2H97.0253V12.6C97.3853 12.04 97.8786 11.6067 98.5053 11.3C99.1453 10.9933 99.8586 10.84 100.645 10.84ZM107.318 16.48C107.318 15.36 107.545 14.38 107.998 13.54C108.452 12.6867 109.072 12.0267 109.858 11.56C110.658 11.0933 111.545 10.86 112.518 10.86C113.478 10.86 114.312 11.0667 115.018 11.48C115.725 11.8933 116.252 12.4133 116.598 13.04V11.04H118.438V22H116.598V19.96C116.238 20.6 115.698 21.1333 114.978 21.56C114.272 21.9733 113.445 22.18 112.498 22.18C111.525 22.18 110.645 21.94 109.858 21.46C109.072 20.98 108.452 20.3067 107.998 19.44C107.545 18.5733 107.318 17.5867 107.318 16.48ZM116.598 16.5C116.598 15.6733 116.432 14.9533 116.098 14.34C115.765 13.7267 115.312 13.26 114.738 12.94C114.178 12.6067 113.558 12.44 112.878 12.44C112.198 12.44 111.578 12.6 111.018 12.92C110.458 13.24 110.012 13.7067 109.678 14.32C109.345 14.9333 109.178 15.6533 109.178 16.48C109.178 17.32 109.345 18.0533 109.678 18.68C110.012 19.2933 110.458 19.7667 111.018 20.1C111.578 20.42 112.198 20.58 112.878 20.58C113.558 20.58 114.178 20.42 114.738 20.1C115.312 19.7667 115.765 19.2933 116.098 18.68C116.432 18.0533 116.598 17.3267 116.598 16.5ZM123.734 12.54V19C123.734 19.5333 123.847 19.9133 124.074 20.14C124.301 20.3533 124.694 20.46 125.254 20.46H126.594V22H124.954C123.941 22 123.181 21.7667 122.674 21.3C122.167 20.8333 121.914 20.0667 121.914 19V12.54H120.494V11.04H121.914V8.28H123.734V11.04H126.594V12.54H123.734Z" fill="black"/>
<defs>
<linearGradient id="paint0_linear_17_133" x1="18.6059" y1="23.3023" x2="5.22286" y2="3.17649" gradientUnits="userSpaceOnUse">
<stop stop-color="#26329E"/>
<stop offset="0.23" stop-color="#3559B8"/>
<stop offset="0.59" stop-color="#4A90DC"/>
<stop offset="0.86" stop-color="#57B2F3"/>
<stop offset="1" stop-color="#5CBFFC"/>
</linearGradient>
<linearGradient id="paint1_linear_17_133" x1="18.0538" y1="8.9412" x2="17.9545" y2="3.94003" gradientUnits="userSpaceOnUse">
<stop stop-color="#26329E"/>
<stop offset="0.3" stop-color="#2B63C0" stop-opacity="0.64"/>
<stop offset="0.63" stop-color="#3193E2" stop-opacity="0.3"/>
<stop offset="0.87" stop-color="#34B1F7" stop-opacity="0.08"/>
<stop offset="1" stop-color="#36BDFF" stop-opacity="0"/>
</linearGradient>
<linearGradient id="paint2_linear_17_133" x1="13.4037" y1="16.2645" x2="7.80361" y2="13.7052" gradientUnits="userSpaceOnUse">
<stop stop-color="#26329E"/>
<stop offset="0.3" stop-color="#6168C0" stop-opacity="0.64"/>
<stop offset="0.63" stop-color="#9B9DE2" stop-opacity="0.3"/>
<stop offset="0.87" stop-color="#BFBEF7" stop-opacity="0.08"/>
<stop offset="1" stop-color="#CDCBFF" stop-opacity="0"/>
</linearGradient>
<linearGradient id="paint3_linear_17_133" x1="19.5344" y1="9.69067" x2="29.7721" y2="27.3075" gradientUnits="userSpaceOnUse">
<stop stop-color="#8282F9"/>
<stop offset="0.2" stop-color="#8374FA"/>
<stop offset="1" stop-color="#8B3DFF"/>
</linearGradient>
<linearGradient id="paint4_linear_17_133" x1="2.9429" y1="1.46919" x2="14.8749" y2="5.15262" gradientUnits="userSpaceOnUse">
<stop stop-color="#26329E"/>
<stop offset="0.3" stop-color="#2B63C0" stop-opacity="0.64"/>
<stop offset="0.63" stop-color="#3193E2" stop-opacity="0.3"/>
<stop offset="0.87" stop-color="#34B1F7" stop-opacity="0.08"/>
<stop offset="1" stop-color="#36BDFF" stop-opacity="0"/>
</linearGradient>
<linearGradient id="paint5_linear_17_133" x1="22.1135" y1="11.6586" x2="31.3996" y2="11.0363" gradientUnits="userSpaceOnUse">
<stop stop-color="white" stop-opacity="0"/>
<stop offset="1" stop-color="#727D8D"/>
</linearGradient>
<linearGradient id="paint6_linear_17_133" x1="18.8691" y1="15.6468" x2="15.6215" y2="16.5492" gradientUnits="userSpaceOnUse">
<stop stop-color="white" stop-opacity="0"/>
<stop offset="1" stop-color="#727D8D"/>
</linearGradient>
<linearGradient id="paint7_linear_17_133" x1="20.0865" y1="14.1407" x2="20.4126" y2="11.8882" gradientUnits="userSpaceOnUse">
<stop stop-color="white" stop-opacity="0"/>
<stop offset="1" stop-color="#727D8D"/>
</linearGradient>
<linearGradient id="paint8_linear_17_133" x1="22.2792" y1="24.2011" x2="17.6761" y2="26.0529" gradientUnits="userSpaceOnUse">
<stop stop-color="white" stop-opacity="0"/>
<stop offset="1" stop-color="#727D8D"/>
</linearGradient>
<linearGradient id="paint9_linear_17_133" x1="16.5647" y1="10.7802" x2="15.2153" y2="8.44493" gradientUnits="userSpaceOnUse">
<stop stop-color="#5C43C3"/>
<stop offset="0.15" stop-color="#5C59CD"/>
<stop offset="0.55" stop-color="#5C90E6"/>
<stop offset="0.84" stop-color="#5CB2F6"/>
<stop offset="1" stop-color="#5CBFFC"/>
</linearGradient>
<linearGradient id="paint10_linear_17_133" x1="12.6054" y1="10.7802" x2="11.2561" y2="8.44493" gradientUnits="userSpaceOnUse">
<stop stop-color="#5C43C3"/>
<stop offset="0.15" stop-color="#5C59CD"/>
<stop offset="0.55" stop-color="#5C90E6"/>
<stop offset="0.84" stop-color="#5CB2F6"/>
<stop offset="1" stop-color="#5CBFFC"/>
</linearGradient>
<linearGradient id="paint11_linear_17_133" x1="8.64613" y1="10.7802" x2="7.29537" y2="8.44493" gradientUnits="userSpaceOnUse">
<stop stop-color="#5C43C3"/>
<stop offset="0.15" stop-color="#5C59CD"/>
<stop offset="0.55" stop-color="#5C90E6"/>
<stop offset="0.84" stop-color="#5CB2F6"/>
<stop offset="1" stop-color="#5CBFFC"/>
</linearGradient>
<clipPath id="clip0_17_133">
<rect width="36" height="30" fill="white"/>
</clipPath>
</defs>
</svg>
