<svg width="18" height="21" viewBox="0 0 18 21" fill="none" xmlns="http://www.w3.org/2000/svg">
<path d="M13.5804 14.7053C14.0242 14.7053 14.3839 14.3456 14.3839 13.9018C14.3839 13.458 14.0242 13.0982 13.5804 13.0982C13.1366 13.0982 12.7768 13.458 12.7768 13.9018C12.7768 14.3456 13.1366 14.7053 13.5804 14.7053Z" fill="black"/>
<path d="M17.1964 14.5446C17.6402 14.5446 18 14.1849 18 13.7411V10.7679C18 8.99549 16.5581 7.55357 14.7857 7.55357H13.8199V4.71961C13.8199 2.11721 11.657 0 8.99851 0C6.33997 0 4.17708 2.11721 4.17708 4.71961V7.55357H3.21428C1.44193 7.55357 0 8.99549 0 10.7679V17.3571C0 19.1295 1.44193 20.5714 3.21428 20.5714H14.7857C16.5581 20.5714 18 19.1295 18 17.3571C18 16.9133 17.6402 16.5536 17.1964 16.5536C16.7526 16.5536 16.3928 16.9133 16.3928 17.3571C16.3928 18.2433 15.6719 18.9643 14.7857 18.9643H3.21428C2.32811 18.9643 1.60714 18.2433 1.60714 17.3571V10.7679C1.60714 9.88167 2.32811 9.16071 3.21428 9.16071H14.7857C15.6719 9.16071 16.3928 9.88167 16.3928 10.7679V13.7411C16.3928 14.1849 16.7526 14.5446 17.1964 14.5446ZM12.2128 7.55357H5.78422V4.71961C5.78422 3.00339 7.22615 1.60714 8.99851 1.60714C10.7709 1.60714 12.2128 3.00339 12.2128 4.71961V7.55357Z" fill="black"/>
<path d="M7.51341 14.7053C7.95721 14.7053 8.31698 14.3456 8.31698 13.9018C8.31698 13.458 7.95721 13.0982 7.51341 13.0982C7.06961 13.0982 6.70984 13.458 6.70984 13.9018C6.70984 14.3456 7.06961 14.7053 7.51341 14.7053Z" fill="black"/>
<path d="M4.49998 14.7053C4.94378 14.7053 5.30355 14.3456 5.30355 13.9018C5.30355 13.458 4.94378 13.0982 4.49998 13.0982C4.05618 13.0982 3.69641 13.458 3.69641 13.9018C3.69641 14.3456 4.05618 14.7053 4.49998 14.7053Z" fill="black"/>
<path d="M10.5268 14.7053C10.9706 14.7053 11.3303 14.3456 11.3303 13.9018C11.3303 13.458 10.9706 13.0982 10.5268 13.0982C10.083 13.0982 9.72321 13.458 9.72321 13.9018C9.72321 14.3456 10.083 14.7053 10.5268 14.7053Z" fill="black"/>
</svg>
