<svg width="17" height="21" viewBox="0 0 17 21" fill="none" xmlns="http://www.w3.org/2000/svg">
<path d="M8.37145 9.81534C9.71987 9.81534 10.8874 9.33169 11.8416 8.37746C12.7955 7.42344 13.2793 6.25611 13.2793 4.90753C13.2793 3.55936 12.7956 2.3919 11.8414 1.43752C10.8872 0.483617 9.71971 0 8.37145 0C7.02284 0 5.85547 0.483618 4.90144 1.43768C3.94742 2.39174 3.4636 3.55924 3.4636 4.90753C3.4636 6.25611 3.94738 7.4236 4.90148 8.37766C5.85582 9.33157 7.02332 9.81534 8.37141 9.81534H8.37145ZM5.7459 2.28198C6.47794 1.54991 7.33672 1.19408 8.37145 1.19408C9.40603 1.19408 10.2649 1.54991 10.9971 2.28198C11.7292 3.01417 12.0852 3.87308 12.0852 4.90749C12.0852 5.94222 11.7292 6.80101 10.9971 7.5332C10.2649 8.26543 9.40603 8.62126 8.37145 8.62126C7.337 8.62126 6.47829 8.26528 5.7459 7.5332C5.01367 6.80117 4.65768 5.94226 4.65768 4.90753C4.65768 3.87308 5.01367 3.01417 5.7459 2.28198ZM16.9588 15.6683C16.9313 15.2713 16.8756 14.8382 16.7937 14.3809C16.711 13.92 16.6045 13.4845 16.477 13.0863C16.3452 12.6748 16.1663 12.2685 15.9447 11.879C15.7151 11.4749 15.4453 11.1229 15.1424 10.8333C14.8258 10.5303 14.438 10.2867 13.9897 10.109C13.5429 9.93227 13.0478 9.84272 12.5181 9.84272C12.3101 9.84272 12.109 9.92805 11.7205 10.181C11.4443 10.3608 11.1673 10.5394 10.8896 10.7167C10.6226 10.8868 10.261 11.0461 9.81439 11.1904C9.37865 11.3314 8.93622 11.4029 8.49936 11.4029C8.06287 11.4029 7.6204 11.3314 7.18434 11.1904C6.73821 11.0462 6.37645 10.8869 6.10997 10.7168C5.80074 10.5192 5.52097 10.3389 5.27828 10.1808C4.8901 9.92789 4.68893 9.84252 4.48094 9.84252C3.95112 9.84252 3.45616 9.93223 3.00952 10.1092C2.56148 10.2865 2.17361 10.5301 1.85663 10.8334C1.55381 11.1232 1.28394 11.475 1.05447 11.879C0.833277 12.2685 0.654189 12.6747 0.52234 13.0865C0.394989 13.4846 0.288531 13.92 0.205832 14.3809C0.12373 14.8376 0.0682525 15.2708 0.0407127 15.6688C0.0136505 16.0579 0 16.4629 0 16.8721C0 17.9357 0.338118 18.7968 1.00488 19.4318C1.66341 20.0585 2.53461 20.3762 3.59434 20.3762H13.4057C14.4651 20.3762 15.3363 20.0585 15.995 19.4319C16.6619 18.7972 17 17.9359 17 16.8719C16.9998 16.4613 16.986 16.0564 16.9588 15.6683ZM15.1717 18.5667C14.7365 18.9808 14.1588 19.1822 13.4055 19.1822H3.59438C2.84089 19.1822 2.2632 18.9808 1.82821 18.5669C1.4015 18.1607 1.19412 17.6062 1.19412 16.8721C1.19412 16.4902 1.2067 16.1133 1.23193 15.7514C1.25644 15.3963 1.30667 15.0062 1.38117 14.5918C1.45467 14.1825 1.54824 13.7983 1.65955 13.4506C1.76637 13.1171 1.91202 12.7869 2.09266 12.4689C2.26507 12.1657 2.46342 11.9056 2.6823 11.6961C2.88706 11.5 3.14515 11.3396 3.4492 11.2193C3.73041 11.108 4.04648 11.047 4.38957 11.0378C4.43136 11.0601 4.50586 11.1025 4.62648 11.1812C4.87195 11.3412 5.15487 11.5237 5.46768 11.7234C5.82028 11.9482 6.27449 12.1512 6.81721 12.3264C7.37202 12.5058 7.9379 12.5969 8.49956 12.5969C9.06126 12.5969 9.62726 12.5058 10.1818 12.3266C10.725 12.1511 11.179 11.9482 11.5321 11.7231C11.8522 11.5186 12.1272 11.3413 12.3726 11.1812C12.4933 11.1027 12.5678 11.0601 12.6096 11.0379C12.9528 11.047 13.2689 11.108 13.5502 11.2193C13.8542 11.3396 14.1123 11.5002 14.317 11.696C14.5359 11.9055 14.7342 12.1656 14.9066 12.469C15.0874 12.7869 15.2333 13.1173 15.3399 13.4504C15.4514 13.7987 15.5451 14.1826 15.6185 14.5916C15.6928 15.0069 15.7432 15.3971 15.7677 15.7515V15.7518C15.7931 16.1123 15.8058 16.4892 15.806 16.8721C15.8058 17.6063 15.5984 18.1607 15.1717 18.5667H15.1717Z" fill="black"/>
</svg>
